<?xml version="1.0" encoding="utf-8"?>
<svg width="671px" height="401px" viewBox="0 0 671 401" version="1.1" xmlns:xlink="http://www.w3.org/1999/xlink" xmlns="http://www.w3.org/2000/svg">
  <defs>
    <path d="M0 0L671 0L671 401L0 401L0 0Z" id="path_1" />
    <path d="M178.4 44.7C178.4 37.4 178.2 32.3 177.8 29.4C177.4 26.5 176.5 24.6 175.2 23.8C173.9 23 171.6 22.6 168.3 22.6C164.9 22.6 162.4 23.2 160.9 24.4C159.4 25.6 158.4 27.8 158 31C157.6 34.2 157.4 39.3 157.4 46.3L157.4 94.4L131.2 94.4L131.2 44.7C131.2 37.4 131 32.3 130.6 29.4C130.2 26.5 129.3 24.6 128 23.8C126.7 23 124.4 22.6 121.1 22.6C117.7 22.6 115.2 23.2 113.7 24.5C112.2 25.8 111.2 28 110.8 31.1C110.4 34.2 110.2 39.3 110.2 46.3L110.2 94.4L83.8 94.4L83.8 1.5L109 1.5L109.7 12.6L111 12.6C113.2 8.1 116.2 4.9 120.1 2.9C124 1 128.7 0 134.3 0C140.6 0 145.5 1 148.9 3C152.3 5 154.7 8.2 156 12.6L157.6 12.6C161.7 4.2 169.6 0 181.1 0C187.7 0 192.7 1.2 196.1 3.7C199.6 6.2 201.9 9.9 203.2 14.7C204.5 19.6 205.1 26.1 205.1 34.4L205.1 94.4L178.7 94.4L178.7 44.7L178.4 44.7Z" id="path_2" />
    <clipPath id="clip_1">
      <use xlink:href="#path_1" />
    </clipPath>
  </defs>
  <g id="docs-as-code-logo" clip-path="url(#clip_1)">
    <path d="M0 0L671 0L671 401L0 401L0 0Z" id="docs-as-code-logo" fill="none" fill-rule="evenodd" stroke="none" />
    <g id="daclogo" transform="translate(60.08484 45.11548)">
      <path d="M555.83 33.5221L554.816 284.262C554.795 289.506 552.991 294.039 549.404 297.864C545.817 301.688 541.408 303.778 536.176 304.134L277.646 321.744L19.6493 304.137C14.4187 303.78 10.0101 301.689 6.42365 297.865C2.83715 294.041 1.03332 289.508 1.01216 284.265L0.000169631 33.5239C-0.0108951 30.7824 0.519341 28.1499 1.59088 25.6265C2.66242 23.103 4.18832 20.8933 6.16859 18.9974C8.14886 17.1015 10.4228 15.6732 12.9905 14.7124C15.5582 13.7517 18.2112 13.3365 20.9496 13.4668L277.646 25.6824L534.882 13.4648C537.621 13.3347 540.274 13.7501 542.841 14.711C545.408 15.6719 547.682 17.1002 549.662 18.9961C551.642 20.8921 553.168 23.1017 554.24 25.625C555.311 28.1484 555.841 30.7807 555.83 33.5221L555.83 33.5221Z" id="book_background" fill="#FFFFFF" fill-rule="evenodd" stroke="#B6B6B6" stroke-width="9" />
      <g id="book_foreground" transform="translate(18.952637 0)">
        <path d="M9.15527e-05 10.0349L0.92984 272.223C0.939072 274.827 1.82973 277.083 3.60181 278.991C5.3739 280.9 7.55812 281.955 10.1545 282.156L247.689 300.605C249.078 300.713 250.431 300.539 251.747 300.081C253.063 299.624 254.232 298.922 255.255 297.976C256.277 297.029 257.068 295.918 257.626 294.641C258.184 293.365 258.463 292.03 258.463 290.637C258.463 292.03 258.742 293.365 259.3 294.641C259.858 295.918 260.648 297.029 261.67 297.976C262.693 298.922 263.862 299.624 265.178 300.081C266.494 300.539 267.847 300.713 269.236 300.605L506.771 282.156C509.367 281.955 511.551 280.9 513.323 278.991C515.095 277.083 515.986 274.827 515.995 272.223L516.925 10.0349C516.93 8.65898 516.662 7.33829 516.122 6.07287C515.581 4.80744 514.813 3.70071 513.815 2.75266C512.818 1.80461 511.674 1.09274 510.383 0.61704C509.092 0.141342 507.759 -0.0593018 506.385 0.0151093L267.921 12.93C265.269 13.0737 263.029 14.1096 261.203 16.0379C259.376 17.9661 258.463 20.2583 258.463 22.9144C258.463 20.2583 257.549 17.9661 255.723 16.0379C253.896 14.1096 251.656 13.0737 249.004 12.93L10.5398 0.0151093C9.16582 -0.0593018 7.83328 0.141342 6.54217 0.617039C5.25105 1.09274 4.10688 1.80461 3.10964 2.75266C2.11241 3.7007 1.34362 4.80744 0.803282 6.07287C0.262942 7.33829 -0.00478829 8.65898 9.15527e-05 10.0349L9.15527e-05 10.0349Z" id="border" fill="#FFFFFF" fill-rule="evenodd" stroke="#DCDCDC" stroke-width="13" />
        <path d="M258.463 20.3845L258.463 292.385" id="middle_line" fill="none" fill-rule="evenodd" stroke="#DCDCDC" stroke-width="13" />
      </g>
      <g id="demo" transform="translate(63.78015 89.44226)">
        <g id="o" transform="translate(330.135 0)">
          <path d="M51.255 170.685Q37.145 170.685 26.9875 165.33Q16.83 159.975 11.3475 149.222Q5.865 138.47 5.865 122.66Q5.865 98.69 17.68 86.5775Q29.495 74.465 51.255 74.465Q72.93 74.465 84.7875 86.62Q96.645 98.775 96.645 122.49Q96.645 138.385 91.1625 149.18Q85.68 159.975 75.5225 165.33Q65.365 170.685 51.255 170.685ZM51.255 150.03Q57.29 150.03 61.2 147.48Q65.11 144.93 67.1925 138.938Q69.275 132.945 69.275 122.745Q69.275 112.375 67.1925 106.255Q65.11 100.135 61.1575 97.585Q57.205 95.035 51.255 95.035Q45.305 95.035 41.3525 97.585Q37.4 100.135 35.3175 106.127Q33.235 112.12 33.235 122.405Q33.235 132.775 35.3175 138.852Q37.4 144.93 41.31 147.48Q45.22 150.03 51.255 150.03Z" />
        </g>
        <g id="em" transform="translate(70.63501 73.900085)">
          <g id="text_em" transform="translate(50.099976 0)">
            <path d="M75.2 55.3L26.2 55.3C26.2 61.9 26.6 66.4 27.3 68.9C28 71.4 29.8 73.1 32.5 73.9C35.2 74.8 40.1 75.2 47 75.2C52.2 75.2 60.7 74.7 72.3 73.7L72.3 93C68.7 93.9 63.9 94.5 58 95.1C52.1 95.6 46.4 95.9 40.8 95.9C28.3 95.9 19.1 94.3 13.4 91.2C7.6 88 4 83.3 2.4 77C0.800003 70.7 0 61.1 0 48.2C0 35.6 0.800003 26 2.4 19.6C4 13.2 7.5 8.30003 13 5.00004C18.5 1.70004 27.1 0.100037 38.9 0.100037C50.6 0.100037 58.9 1.60004 64.1 4.70004C69.2 7.80003 72.4 12.4 73.6 18.6C74.8 24.8 75.4 34.6 75.4 48.1L75.4 55.3L75.2 55.3ZM30.3 21.6C28.7 22.5 27.6 24.2 27 26.8C26.5 29.4 26.2 33.8 26.2 39.8L50.3 39.8C50.3 33.6 50 29.2 49.4 26.6C48.8 24 47.7 22.3 46.1 21.5C44.5 20.7 42 20.3 38.4 20.3C34.6 20.3 31.9 20.7 30.3 21.6L30.3 21.6Z" id="Form" fill="#4A4F4F" fill-rule="evenodd" stroke="none" />
            <g id="Form">
              <use xlink:href="#path_2" fill="none" stroke="#FFFFFF" stroke-width="12" />
              <use stroke="none" fill="#8D9197" xlink:href="#path_2" />
            </g>
          </g>
          <path d="M22 45C34.1 45 44 35.2 44 23C44 10.8 34.2 1 22 1C9.8 1 0 10.8 0 23C0 35.2 9.9 45 22 45" id="dot_top" fill="#982A2C" stroke="none" />
          <path d="M22 95.1C34.1 95.1 44 85.3 44 73.1C44 60.9 34.2 51.1 22 51.1C9.8 51.1 0 60.9 0 73.1C0 85.3 9.9 95.1 22 95.1" id="dot_bottom" fill="#F7A600" stroke="none" />
        </g>
        <path d="M18.785 165.67Q27.37 170.515 38.165 170.515Q46.155 170.515 52.4875 167.497Q58.82 164.48 62.9 159.21L64.175 159.21L65.875 168.9L76.6814 168.9C69.7035 163.924 65.135 155.766 65.135 146.5C65.135 135.769 71.201 126.523 80.1098 121.986C71.2377 117.439 65.135 108.209 65.135 97.5C65.135 83.6024 75.3086 72.1963 88.655 70.2826L88.655 31.54L61.455 31.54L61.455 75.06Q56.44 74.38 50.66 74.38Q25.925 74.38 12.9625 87.1725Q1.04904e-05 99.965 1.04904e-05 124.36Q9.53674e-06 140.17 5.10001 150.497Q10.2 160.825 18.785 165.67ZM54.655 146.757Q50.575 148.33 46.155 148.33Q37.06 148.33 32.215 142.465Q27.37 136.6 27.37 122.235Q27.37 107.87 33.1075 101.452Q38.845 95.035 50.745 95.035Q56.525 95.035 61.455 96.055L61.455 142.04Q58.735 145.185 54.655 146.757Z" id="d" fill="#000000" fill-rule="evenodd" stroke="none" />
      </g>
      <path d="M275.987 61.0884C274.191 57.4959 271.518 54.9043 267.968 53.3136C264.853 51.9182 261.036 51.2205 256.515 51.2205C254.174 51.2205 251.707 51.4248 249.113 51.8334C246.459 52.2515 244.101 52.8355 242.038 53.5855L238.747 54.7823L238.747 70.2344L245.373 67.9569C247.156 67.3437 248.975 66.8839 250.827 66.5775C252.685 66.2701 254.373 66.1165 255.891 66.1165C258.008 66.1165 259.623 66.3483 260.736 66.8119C261.307 67.0496 261.756 67.5018 262.083 68.1685C262.622 69.2654 262.891 70.9947 262.891 73.3565L262.891 74.9931L256.857 75.6851C250.188 76.3325 245.088 78.3068 241.557 81.6081C237.796 85.1243 235.915 89.8937 235.915 95.9165C235.915 99.6898 236.7 102.993 238.269 105.827C239.909 108.787 242.223 111.043 245.212 112.594C248.03 114.057 251.222 114.788 254.787 114.788C258.123 114.788 261.198 114.13 264.01 112.812L264.106 113.973L278.411 113.973L278.411 112.849C282.448 114.206 286.663 114.884 291.055 114.884C295.36 114.884 299.128 114.152 302.36 112.686C305.869 111.095 308.571 108.751 310.465 105.653C312.314 102.628 313.239 99.1109 313.239 95.1005C313.239 90.2385 311.989 86.2108 309.488 83.0175C307.016 79.8615 303.088 77.5457 297.705 76.0703L292.811 74.7269C291.217 74.2741 290.139 73.719 289.578 73.0616C289.16 72.5726 288.951 71.7269 288.951 70.5245C288.951 69.294 289.4 68.2892 290.299 67.51C291.407 66.549 293.355 66.0685 296.143 66.0685C297.625 66.0685 299.004 66.1508 300.279 66.3154C301.589 66.4843 303.02 66.7557 304.573 67.1296L310.743 68.615L310.743 53.3906L306.92 52.4649C303.493 51.6353 299.853 51.2205 295.999 51.2205C291.608 51.2205 287.763 51.9945 284.466 53.5425C280.953 55.192 278.256 57.5213 276.375 60.5305C276.25 60.7311 276.129 60.9334 276.012 61.1375C276.004 61.122 275.996 61.1057 275.987 61.0884L275.987 61.0884ZM278.411 83.6809L278.411 97.4015L281.098 98.2553C284.733 99.4108 288.036 99.9885 291.007 99.9885C293.656 99.9885 295.537 99.5337 296.647 98.6241C297.458 97.9603 297.863 96.8658 297.863 95.3405C297.863 93.9064 297.652 92.9489 297.231 92.468C296.626 91.778 295.486 91.1907 293.812 90.7061L288.87 89.3495C284.355 88.0644 280.869 86.1749 278.411 83.6809L278.411 83.6809ZM262.891 89.3662L258.221 89.8509C255.575 90.12 253.76 90.72 252.777 91.651C252.01 92.3769 251.627 93.5907 251.627 95.2925C251.627 97.1758 251.947 98.4373 252.587 99.0769C253.226 99.7166 254.376 100.036 256.035 100.036C257.403 100.037 258.757 99.6758 260.097 98.9541C261.094 98.4173 262.025 97.5591 262.891 96.3793L262.891 89.3662L262.891 89.3662Z" id="as_border" fill="#FFFFFF" fill-rule="evenodd" stroke="none" />
      <g id="docs-as-code" transform="translate(63.91516 13.442261)">
        <path d="M8.712 90.384Q13.536 96.432 21.312 96.432Q25.152 96.432 28.224 94.728Q31.296 93.024 33.12 90.336L33.552 90.336L33.984 95.52L38.832 95.52L38.832 17.952L33.264 17.952L33.264 43.152Q30.048 42.768 26.832 42.768Q15.456 42.768 9.672 49.56Q3.888 56.352 3.888 70.56Q3.888 84.336 8.712 90.384ZM364.36 96.432Q356.584 96.432 351.76 90.384Q346.936 84.336 346.936 70.56Q346.936 56.352 352.72 49.56Q358.504 42.768 369.88 42.768Q373.096 42.768 376.312 43.152L376.312 17.952L381.88 17.952L381.88 95.52L377.032 95.52L376.6 90.336L376.168 90.336Q374.344 93.024 371.272 94.728Q368.2 96.432 364.36 96.432ZM45.052 69.6Q45.052 96.432 63.628 96.432Q72.604 96.432 77.404 90.024Q82.204 83.616 82.204 69.552Q82.204 42.768 63.628 42.768Q54.652 42.768 49.852 49.152Q45.052 55.536 45.052 69.6ZM105.176 96.432Q98.792 96.432 94.544 93.768Q90.296 91.104 88.088 85.152Q85.88 79.2 85.88 69.552Q85.88 59.808 88.328 53.904Q90.776 48 95.48 45.384Q100.184 42.768 107.288 42.768Q111.8 42.768 115.784 43.776L115.784 48.816Q111.704 47.76 108.008 47.76Q102.248 47.76 98.744 49.728Q95.24 51.696 93.488 56.4Q91.736 61.104 91.736 69.312Q91.736 77.664 93.32 82.488Q94.904 87.312 98.048 89.352Q101.192 91.392 106.136 91.392Q110.504 91.392 115.784 89.472L115.784 94.512Q110.504 96.432 105.176 96.432ZM116.868 94.512Q122.34 96.432 128.34 96.432Q133.716 96.432 137.58 94.68Q141.444 92.928 143.484 89.592Q145.524 86.256 145.524 81.648Q145.524 76.08 142.836 72.648Q140.148 69.216 133.668 67.44L128.772 66.096Q124.884 64.992 123.06 62.856Q121.236 60.72 121.236 57.072Q121.236 52.944 124.308 50.28Q127.38 47.616 133.428 47.616Q135.972 47.616 138.204 47.904Q140.436 48.192 143.028 48.816L143.028 43.872Q138.468 42.768 133.284 42.768Q127.812 42.768 123.876 44.616Q119.94 46.464 117.9 49.728Q115.86 52.992 115.86 57.216Q115.86 62.592 118.572 65.952Q121.284 69.312 127.524 71.088L132.42 72.432Q136.404 73.584 138.276 75.72Q140.148 77.856 140.148 81.888Q140.148 86.544 137.1 89.04Q134.052 91.536 128.292 91.536Q123.06 91.536 116.868 89.568L116.868 94.512ZM201.692 44.424Q197.996 42.768 192.284 42.768Q189.164 42.768 185.66 43.32Q182.156 43.872 179.516 44.832L179.516 49.776Q182.588 48.72 185.78 48.192Q188.972 47.664 191.66 47.664Q195.836 47.664 198.428 48.744Q201.02 49.824 202.34 52.512Q203.66 55.2 203.66 59.904L203.66 66L193.196 67.2Q184.796 68.016 180.74 71.808Q176.684 75.6 176.684 82.464Q176.684 86.832 178.412 89.952Q180.14 93.072 183.284 94.704Q186.428 96.336 190.556 96.336Q194.636 96.336 197.972 94.68Q201.308 93.024 203.564 89.76L203.996 89.76L204.476 95.52L209.18 95.52L209.18 60.096Q209.18 53.664 207.284 49.872Q205.388 46.08 201.692 44.424ZM226.824 96.432Q220.824 96.432 215.352 94.512L215.352 89.568Q221.544 91.536 226.776 91.536Q232.536 91.536 235.584 89.04Q238.632 86.544 238.632 81.888Q238.632 77.856 236.76 75.72Q234.888 73.584 230.904 72.432L226.008 71.088Q219.768 69.312 217.056 65.952Q214.344 62.592 214.344 57.216Q214.344 52.992 216.384 49.728Q218.424 46.464 222.36 44.616Q226.296 42.768 231.768 42.768Q236.952 42.768 241.512 43.872L241.512 48.816Q238.92 48.192 236.688 47.904Q234.456 47.616 231.912 47.616Q225.864 47.616 222.792 50.28Q219.72 52.944 219.72 57.072Q219.72 60.72 221.544 62.856Q223.368 64.992 227.256 66.096L232.152 67.44Q238.632 69.216 241.32 72.648Q244.008 76.08 244.008 81.648Q244.008 86.256 241.968 89.592Q239.928 92.928 236.064 94.68Q232.2 96.432 226.824 96.432ZM294.8 96.432Q288.416 96.432 284.168 93.768Q279.92 91.104 277.712 85.152Q275.504 79.2 275.504 69.552Q275.504 59.808 277.952 53.904Q280.4 48 285.104 45.384Q289.808 42.768 296.912 42.768Q301.424 42.768 305.408 43.776L305.408 48.816Q301.328 47.76 297.632 47.76Q291.872 47.76 288.368 49.728Q284.864 51.696 283.112 56.4Q281.36 61.104 281.36 69.312Q281.36 77.664 282.944 82.488Q284.528 87.312 287.672 89.352Q290.816 91.392 295.76 91.392Q300.128 91.392 305.408 89.472L305.408 94.512Q300.128 96.432 294.8 96.432ZM306.108 69.6Q306.108 96.432 324.684 96.432Q333.66 96.432 338.46 90.024Q343.26 83.616 343.26 69.552Q343.26 42.768 324.684 42.768Q315.708 42.768 310.908 49.152Q306.108 55.536 306.108 69.6ZM393.86 71.568L422.708 71.568L422.708 69.552Q422.708 55.392 418.364 49.08Q414.02 42.768 405.86 42.768Q397.508 42.768 392.804 49.176Q388.1 55.584 388.1 69.504Q388.1 79.296 390.404 85.2Q392.708 91.104 397.268 93.768Q401.828 96.432 408.884 96.432Q414.404 96.432 420.356 94.512L420.356 89.568Q413.972 91.488 409.412 91.488Q404.132 91.488 400.796 89.616Q397.46 87.744 395.732 83.4Q394.004 79.056 393.86 71.568ZM397.172 51.72Q400.292 47.232 405.86 47.232Q409.364 47.232 411.812 49.032Q414.26 50.832 415.652 55.248Q417.044 59.664 417.14 67.248L393.86 67.248Q394.052 56.208 397.172 51.72ZM70.564 89.688Q67.756 91.68 63.628 91.68Q59.5 91.68 56.692 89.664Q53.884 87.648 52.348 82.752Q50.812 77.856 50.812 69.408Q50.812 61.152 52.348 56.328Q53.884 51.504 56.692 49.512Q59.5 47.52 63.628 47.52Q67.756 47.52 70.54 49.512Q73.324 51.504 74.86 56.4Q76.396 61.296 76.396 69.744Q76.396 78.048 74.884 82.872Q73.372 87.696 70.564 89.688ZM331.62 89.688Q328.812 91.68 324.684 91.68Q320.556 91.68 317.748 89.664Q314.94 87.648 313.404 82.752Q311.868 77.856 311.868 69.408Q311.868 61.152 313.404 56.328Q314.94 51.504 317.748 49.512Q320.556 47.52 324.684 47.52Q328.812 47.52 331.596 49.512Q334.38 51.504 335.916 56.4Q337.452 61.296 337.452 69.744Q337.452 78.048 335.94 82.872Q334.428 87.696 331.62 89.688ZM28.608 89.664Q25.632 91.392 22.368 91.392Q18.48 91.392 15.696 89.568Q12.912 87.744 11.28 83.04Q9.648 78.336 9.648 70.032Q9.648 58.08 13.872 52.824Q18.096 47.568 26.544 47.568Q28.176 47.568 30.072 47.736Q31.968 47.904 33.264 48.192L33.264 84.72Q31.584 87.936 28.608 89.664ZM365.416 91.392Q368.68 91.392 371.656 89.664Q374.632 87.936 376.312 84.72L376.312 48.192Q375.016 47.904 373.12 47.736Q371.224 47.568 369.592 47.568Q361.144 47.568 356.92 52.824Q352.696 58.08 352.696 70.032Q352.696 78.336 354.328 83.04Q355.96 87.744 358.744 89.568Q361.528 91.392 365.416 91.392ZM150.592 70.992L150.592 66.144L170.8 66.144L170.8 70.992L150.592 70.992ZM249.076 66.144L249.076 70.992L269.284 70.992L269.284 66.144L249.076 66.144ZM198.236 89.904Q195.116 91.584 191.804 91.584Q187.244 91.584 184.82 89.16Q182.396 86.736 182.396 81.84Q182.396 77.136 185.108 74.568Q187.82 72 193.484 71.424L203.66 70.368L203.66 84.432Q201.356 88.224 198.236 89.904Z" />
      </g>
    </g>
  </g>
</svg>
