<?xml version="1.0" encoding="utf-8"?>
<!-- Generator: Adobe Illustrator 22.1.0, SVG Export Plug-In . SVG Version: 6.00 Build 0)  -->
<svg version="1.1" id="Ebene_1" xmlns="http://www.w3.org/2000/svg" xmlns:xlink="http://www.w3.org/1999/xlink" x="0px" y="0px"
	 viewBox="0 0 583.7 150.1" style="enable-background:new 0 0 583.7 150.1;" xml:space="preserve">
<style type="text/css">
	.st0{fill:#F7A600;}
	.st1{fill:#982A2C;}
	.st2{fill:#4A4F4F;}
	.st3{fill:#8D9197;}
	.st4{fill:none;}
</style>
<path class="st0" d="M44.2,122.1c12.1,0,22-9.8,22-22s-9.8-22-22-22s-22,9.8-22,22S32.1,122.1,44.2,122.1"/>
<path class="st1" d="M44.2,72c12.1,0,22-9.8,22-22s-9.8-22-22-22s-22,9.8-22,22S32.1,72,44.2,72"/>
<g>
	<path class="st2" d="M147.5,82.3h-49c0,6.6,0.4,11.1,1.1,13.6c0.7,2.5,2.5,4.2,5.2,5c2.7,0.9,7.6,1.3,14.5,1.3
		c5.2,0,13.7-0.5,25.3-1.5V120c-3.6,0.9-8.4,1.5-14.3,2.1c-5.9,0.5-11.6,0.8-17.2,0.8c-12.5,0-21.7-1.6-27.4-4.7
		c-5.8-3.2-9.4-7.9-11-14.2c-1.6-6.3-2.4-15.9-2.4-28.8c0-12.6,0.8-22.2,2.4-28.6c1.6-6.4,5.1-11.3,10.6-14.6
		c5.5-3.3,14.1-4.9,25.9-4.9c11.7,0,20,1.5,25.2,4.6c5.1,3.1,8.3,7.7,9.5,13.9c1.2,6.2,1.8,16,1.8,29.5V82.3z M102.6,48.6
		c-1.6,0.9-2.7,2.6-3.3,5.2c-0.5,2.6-0.8,7-0.8,13h24.1c0-6.2-0.3-10.6-0.9-13.2c-0.6-2.6-1.7-4.3-3.3-5.1c-1.6-0.8-4.1-1.2-7.7-1.2
		C106.9,47.3,104.2,47.7,102.6,48.6z"/>
	<path class="st3" d="M250.7,71.7c0-7.3-0.2-12.4-0.6-15.3c-0.4-2.9-1.3-4.8-2.6-5.6c-1.3-0.8-3.6-1.2-6.9-1.2
		c-3.4,0-5.9,0.6-7.4,1.8c-1.5,1.2-2.5,3.4-2.9,6.6c-0.4,3.2-0.6,8.3-0.6,15.3v48.1h-26.2V71.7c0-7.3-0.2-12.4-0.6-15.3
		c-0.4-2.9-1.3-4.8-2.6-5.6c-1.3-0.8-3.6-1.2-6.9-1.2c-3.4,0-5.9,0.6-7.4,1.9c-1.5,1.3-2.5,3.5-2.9,6.6c-0.4,3.1-0.6,8.2-0.6,15.2
		v48.1h-26.4V28.5h25.2l0.7,11.1h1.3c2.2-4.5,5.2-7.7,9.1-9.7c3.9-1.9,8.6-2.9,14.2-2.9c6.3,0,11.2,1,14.6,3c3.4,2,5.8,5.2,7.1,9.6
		h1.6c4.1-8.4,12-12.6,23.5-12.6c6.6,0,11.6,1.2,15,3.7c3.5,2.5,5.8,6.2,7.1,11c1.3,4.9,1.9,11.4,1.9,19.7v60h-26.4V71.7z"/>
</g>
<rect x="22.3" y="-85.4" class="st4" width="579.6" height="273.2"/>
<g>
	<path class="st2" d="M313.8,48.4h-20c0,3.7,0.2,6.3,0.6,7.9c0.4,1.6,1.2,2.8,2.6,3.4c1.3,0.7,3.4,1,6.4,1c1.4,0,3-0.1,4.8-0.2
		c1.7-0.1,3.3-0.3,4.6-0.6v3c-1.1,0.3-2.6,0.5-4.5,0.6c-1.9,0.2-3.7,0.3-5.5,0.3c-3.7,0-6.5-0.5-8.2-1.4c-1.7-0.9-2.9-2.5-3.4-4.8
		c-0.6-2.2-0.9-5.7-0.9-10.3s0.2-8.1,0.7-10.3c0.5-2.2,1.6-3.8,3.3-4.8c1.7-1,4.5-1.5,8.4-1.5c3.5,0,6,0.5,7.6,1.5
		c1.6,1,2.5,2.6,3,4.7c0.4,2.2,0.6,5.6,0.6,10.3V48.4z M296.7,34.6c-1.2,0.6-2,1.6-2.3,3.2c-0.4,1.6-0.6,4.2-0.6,7.8h16.6v-0.9
		c0-3.3-0.2-5.7-0.7-7.2c-0.4-1.5-1.2-2.5-2.2-3c-1-0.5-2.7-0.7-4.9-0.7C299.8,33.7,297.8,34,296.7,34.6z"/>
	<path class="st2" d="M339.7,44.1c0-3.1-0.2-5.4-0.6-6.8c-0.4-1.4-1.1-2.3-2.1-2.8c-1-0.5-2.7-0.7-5.1-0.7c-2.6,0-4.6,0.5-5.8,1.5
		c-1.2,1-1.9,2.4-2.2,4c-0.3,1.7-0.4,4.1-0.4,7.2v16.6H320V31.1h3l0.3,4.8h0.3c0.6-1.7,1.6-3,3.1-3.9c1.4-0.9,3.7-1.4,6.6-1.4
		c2.9,0,5,0.4,6.4,1.2c1.4,0.8,2.4,2.1,2.9,3.8c0.5,1.7,0.7,4.2,0.7,7.4v20.2h-3.5V44.1z"/>
	<path class="st2" d="M350.8,75.5v-3c3,0.3,6.2,0.4,9.5,0.4c3,0,5.2-0.4,6.5-1.1c1.4-0.7,2.3-2,2.7-3.7c0.4-1.8,0.7-4.5,0.7-8.3
		v-0.9h-0.3c-0.6,1.7-1.7,2.9-3.2,3.7c-1.5,0.7-3.6,1.1-6.1,1.1c-3.1,0-5.4-0.5-6.9-1.4c-1.5-0.9-2.6-2.5-3.1-4.8
		c-0.6-2.3-0.9-5.7-0.9-10.3c0-4.6,0.3-8,0.9-10.3c0.6-2.3,1.6-3.9,3.1-4.9c1.5-0.9,3.8-1.4,6.8-1.4c2.4,0,4.5,0.4,6.1,1.1
		c1.7,0.7,2.8,2.1,3.5,4.2h0.3l0.2-4.8h3.1v27.6c0,4.6-0.3,8.1-0.9,10.5c-0.6,2.4-1.8,4.1-3.6,5.2c-1.8,1.1-4.6,1.6-8.3,1.6
		C356.8,76,353.5,75.9,350.8,75.5z M366.7,59.4c1.2-0.7,2.1-1.8,2.6-3.4c0.3-1.1,0.6-2.3,0.7-3.7c0.1-1.4,0.2-3.1,0.2-5.2
		c0-2.1,0-3.9-0.1-5.1c-0.1-1.3-0.3-2.4-0.6-3.4c-0.5-1.8-1.4-3-2.6-3.7c-1.2-0.7-3-1.1-5.2-1.1c-2.6,0-4.5,0.3-5.6,0.9
		c-1.1,0.6-1.9,1.8-2.3,3.6c-0.4,1.8-0.6,4.8-0.6,8.9c0,4.1,0.2,7.1,0.6,8.8c0.4,1.8,1.2,3,2.3,3.6c1.1,0.6,3,0.9,5.6,0.9
		C363.8,60.5,365.5,60.1,366.7,59.4z"/>
	<path class="st2" d="M380.8,21.2v-4.7h3.9v4.7H380.8z M381,63.2V31.1h3.5v32.1H381z"/>
	<path class="st2" d="M411.6,44.1c0-3.1-0.2-5.4-0.6-6.8c-0.4-1.4-1.1-2.3-2.1-2.8c-1-0.5-2.7-0.7-5.1-0.7c-2.6,0-4.6,0.5-5.8,1.5
		c-1.2,1-1.9,2.4-2.2,4c-0.3,1.7-0.4,4.1-0.4,7.2v16.6h-3.5V31.1h3l0.3,4.8h0.3c0.6-1.7,1.6-3,3.1-3.9c1.4-0.9,3.7-1.4,6.6-1.4
		c2.9,0,5,0.4,6.4,1.2c1.4,0.8,2.4,2.1,2.9,3.8c0.5,1.7,0.7,4.2,0.7,7.4v20.2h-3.5V44.1z"/>
	<path class="st2" d="M445,48.4h-20c0,3.7,0.2,6.3,0.6,7.9c0.4,1.6,1.2,2.8,2.6,3.4c1.3,0.7,3.4,1,6.4,1c1.4,0,3-0.1,4.8-0.2
		c1.7-0.1,3.3-0.3,4.6-0.6v3c-1.1,0.3-2.6,0.5-4.5,0.6c-1.9,0.2-3.7,0.3-5.5,0.3c-3.7,0-6.5-0.5-8.2-1.4c-1.7-0.9-2.9-2.5-3.4-4.8
		c-0.6-2.2-0.9-5.7-0.9-10.3s0.2-8.1,0.7-10.3c0.5-2.2,1.6-3.8,3.3-4.8c1.7-1,4.5-1.5,8.4-1.5c3.5,0,6,0.5,7.6,1.5
		c1.6,1,2.5,2.6,3,4.7c0.4,2.2,0.6,5.6,0.6,10.3V48.4z M427.9,34.6c-1.2,0.6-2,1.6-2.3,3.2c-0.4,1.6-0.6,4.2-0.6,7.8h16.6v-0.9
		c0-3.3-0.2-5.7-0.7-7.2c-0.4-1.5-1.2-2.5-2.2-3c-1.1-0.5-2.7-0.7-4.9-0.7C431,33.7,429.1,34,427.9,34.6z"/>
	<path class="st2" d="M474.2,48.4h-20c0,3.7,0.2,6.3,0.6,7.9c0.4,1.6,1.2,2.8,2.6,3.4c1.3,0.7,3.4,1,6.4,1c1.4,0,3-0.1,4.8-0.2
		c1.7-0.1,3.3-0.3,4.6-0.6v3c-1.1,0.3-2.6,0.5-4.5,0.6c-1.9,0.2-3.7,0.3-5.5,0.3c-3.7,0-6.5-0.5-8.2-1.4c-1.7-0.9-2.9-2.5-3.4-4.8
		c-0.6-2.2-0.9-5.7-0.9-10.3s0.2-8.1,0.7-10.3c0.5-2.2,1.6-3.8,3.3-4.8c1.7-1,4.5-1.5,8.4-1.5c3.5,0,6,0.5,7.6,1.5
		c1.6,1,2.5,2.6,3,4.7c0.4,2.2,0.6,5.6,0.6,10.3V48.4z M457.1,34.6c-1.2,0.6-2,1.6-2.3,3.2c-0.4,1.6-0.6,4.2-0.6,7.8h16.6v-0.9
		c0-3.3-0.2-5.7-0.7-7.2c-0.4-1.5-1.2-2.5-2.2-3c-1.1-0.5-2.7-0.7-4.9-0.7C460.2,33.7,458.2,34,457.1,34.6z"/>
	<path class="st2" d="M480.4,31.1h3l0.3,6.4h0.3c0.6-2.6,1.8-4.4,3.4-5.4c1.6-1,3.7-1.5,6.3-1.5v3.6c-2.6,0-4.5,0.5-6,1.5
		c-1.4,1-2.4,2.4-2.9,4.3c-0.5,1.9-0.8,4.4-0.8,7.5v15.7h-3.5V31.1z"/>
	<path class="st2" d="M498.5,21.2v-4.7h3.9v4.7H498.5z M498.7,63.2V31.1h3.5v32.1H498.7z"/>
	<path class="st2" d="M529.3,44.1c0-3.1-0.2-5.4-0.6-6.8c-0.4-1.4-1.1-2.3-2.1-2.8c-1-0.5-2.7-0.7-5.1-0.7c-2.6,0-4.6,0.5-5.8,1.5
		c-1.2,1-1.9,2.4-2.2,4c-0.3,1.7-0.4,4.1-0.4,7.2v16.6h-3.5V31.1h3l0.3,4.8h0.3c0.6-1.7,1.6-3,3.1-3.9c1.4-0.9,3.7-1.4,6.6-1.4
		c2.9,0,5,0.4,6.4,1.2c1.4,0.8,2.4,2.1,2.9,3.8c0.5,1.7,0.7,4.2,0.7,7.4v20.2h-3.5V44.1z"/>
	<path class="st2" d="M540.3,75.5v-3c3,0.3,6.2,0.4,9.5,0.4c3,0,5.2-0.4,6.5-1.1c1.4-0.7,2.3-2,2.7-3.7c0.4-1.8,0.7-4.5,0.7-8.3
		v-0.9h-0.3c-0.6,1.7-1.7,2.9-3.2,3.7c-1.5,0.7-3.6,1.1-6.1,1.1c-3.1,0-5.4-0.5-6.9-1.4c-1.5-0.9-2.6-2.5-3.1-4.8
		c-0.6-2.3-0.9-5.7-0.9-10.3c0-4.6,0.3-8,0.9-10.3c0.6-2.3,1.6-3.9,3.2-4.9c1.5-0.9,3.8-1.4,6.8-1.4c2.4,0,4.5,0.4,6.1,1.1
		c1.7,0.7,2.8,2.1,3.5,4.2h0.3l0.2-4.8h3.1v27.6c0,4.6-0.3,8.1-0.9,10.5c-0.6,2.4-1.8,4.1-3.6,5.2c-1.8,1.1-4.6,1.6-8.3,1.6
		C546.4,76,543,75.9,540.3,75.5z M556.3,59.4c1.2-0.7,2.1-1.8,2.6-3.4c0.3-1.1,0.6-2.3,0.7-3.7c0.1-1.4,0.2-3.1,0.2-5.2
		c0-2.1,0-3.9-0.1-5.1c-0.1-1.3-0.3-2.4-0.6-3.4c-0.5-1.8-1.4-3-2.6-3.7c-1.2-0.7-3-1.1-5.2-1.1c-2.6,0-4.5,0.3-5.6,0.9
		c-1.1,0.6-1.9,1.8-2.3,3.6c-0.4,1.8-0.6,4.8-0.6,8.9c0,4.1,0.2,7.1,0.6,8.8c0.4,1.8,1.2,3,2.3,3.6c1.1,0.6,3,0.9,5.6,0.9
		C553.4,60.5,555.1,60.1,556.3,59.4z"/>
</g>
<g>
	<path class="st2" d="M327.7,102.1c0-3.1-0.2-5.4-0.5-6.8c-0.3-1.4-1-2.3-1.9-2.8c-0.9-0.5-2.4-0.7-4.5-0.7c-2.4,0-4.2,0.5-5.3,1.4
		c-1.1,1-1.8,2.3-2,3.9c-0.3,1.7-0.4,4.1-0.4,7.4v16.6h-3.5v-19.2c0-3.1-0.2-5.4-0.5-6.8c-0.3-1.4-0.9-2.3-1.8-2.8
		c-0.9-0.5-2.4-0.7-4.5-0.7c-2.4,0-4.1,0.5-5.3,1.5c-1.1,1-1.8,2.4-2.1,4.1c-0.3,1.7-0.4,4.1-0.4,7.2v16.6h-3.5V89.1h3l0.3,4.8h0.3
		c0.5-1.6,1.5-2.9,2.8-3.9c1.3-0.9,3.4-1.4,6.1-1.4c2.7,0,4.7,0.4,6,1.2c1.3,0.8,2.2,2.2,2.6,4.1h0.3c0.5-1.6,1.5-2.9,2.9-3.9
		c1.4-0.9,3.5-1.4,6.2-1.4c2.6,0,4.6,0.4,5.9,1.2c1.3,0.8,2.2,2.1,2.6,3.8c0.5,1.7,0.7,4.2,0.7,7.3v20.3h-3.5V102.1z"/>
	<path class="st2" d="M361.6,106.4h-20c0,3.7,0.2,6.3,0.6,7.9c0.4,1.6,1.2,2.8,2.6,3.4c1.3,0.7,3.4,1,6.4,1c1.4,0,3-0.1,4.8-0.2
		c1.7-0.1,3.3-0.3,4.6-0.6v3c-1.1,0.3-2.6,0.5-4.5,0.6c-1.9,0.2-3.7,0.3-5.5,0.3c-3.7,0-6.5-0.5-8.2-1.4c-1.7-0.9-2.9-2.5-3.4-4.8
		c-0.6-2.2-0.9-5.7-0.9-10.3s0.2-8.1,0.7-10.3c0.5-2.2,1.6-3.8,3.3-4.8c1.7-1,4.5-1.5,8.4-1.5c3.5,0,6,0.5,7.6,1.5
		c1.6,1,2.5,2.6,3,4.7c0.4,2.2,0.6,5.6,0.6,10.3V106.4z M344.5,92.6c-1.2,0.6-2,1.6-2.3,3.2s-0.6,4.2-0.6,7.8h16.6v-0.9
		c0-3.3-0.2-5.7-0.7-7.2c-0.4-1.5-1.2-2.5-2.2-3c-1-0.5-2.7-0.7-4.9-0.7C347.6,91.7,345.6,92,344.5,92.6z"/>
	<path class="st2" d="M371.6,121.3v-29h-5.7v-3.1h5.7v-9.3h3.5v9.3h6.7v3.1h-6.7v29H371.6z"/>
	<path class="st2" d="M407.2,102.1c0-3.1-0.2-5.4-0.6-6.8c-0.4-1.4-1.1-2.3-2.1-2.8c-1-0.5-2.7-0.7-5.1-0.7c-2.6,0-4.6,0.5-5.8,1.5
		c-1.2,1-1.9,2.4-2.2,4c-0.3,1.7-0.4,4.1-0.4,7.2v16.6h-3.5V74.5h3.5v19h0.3c0.5-1.4,1.5-2.6,3-3.5c1.4-0.9,3.6-1.3,6.5-1.3
		c2.9,0,5,0.4,6.4,1.2c1.4,0.8,2.4,2.1,2.9,3.8c0.5,1.7,0.7,4.2,0.7,7.3v20.3h-3.5V102.1z"/>
	<path class="st2" d="M421.4,120.5c-1.7-0.9-2.8-2.4-3.2-4.5c-0.5-2.2-0.7-5.7-0.7-10.7c0-5,0.2-8.6,0.7-10.7
		c0.5-2.2,1.5-3.7,3.2-4.6c1.7-0.9,4.5-1.3,8.3-1.3c3.9,0,6.7,0.4,8.3,1.3c1.7,0.9,2.7,2.4,3.2,4.6c0.5,2.2,0.7,5.7,0.7,10.7
		c0,5-0.2,8.5-0.7,10.7c-0.5,2.2-1.6,3.7-3.2,4.5s-4.4,1.3-8.3,1.3C425.8,121.8,423.1,121.3,421.4,120.5z M435.9,117.7
		c1.2-0.6,1.9-1.8,2.2-3.4c0.3-1.7,0.4-4.7,0.4-9s-0.1-7.4-0.4-9.1c-0.3-1.7-1-2.8-2.2-3.5c-1.2-0.7-3.2-1-6.2-1c-2.9,0-5,0.3-6.1,1
		c-1.2,0.7-1.9,1.8-2.1,3.5c-0.3,1.7-0.4,4.7-0.4,9.1c0,4.4,0.1,7.4,0.4,9c0.3,1.7,1,2.8,2.1,3.4c1.2,0.6,3.2,0.9,6.1,0.9
		C432.6,118.7,434.7,118.4,435.9,117.7z"/>
	<path class="st2" d="M452.1,120.4c-1.5-0.9-2.6-2.5-3.2-4.8s-0.9-5.7-0.9-10.4c0-4.6,0.3-8,0.9-10.3c0.6-2.3,1.6-3.9,3.1-4.9
		c1.5-0.9,3.8-1.4,6.9-1.4c2.5,0,4.5,0.4,6.1,1.1c1.5,0.7,2.6,1.9,3.3,3.6h0.3V74.5h3.5v46.8h-3l-0.3-4.8h-0.3
		c-0.7,2.1-1.8,3.5-3.5,4.2c-1.7,0.7-3.7,1.1-6.1,1.1C455.9,121.8,453.6,121.3,452.1,120.4z M465.2,117.5c1.2-0.7,2.1-1.7,2.5-3.2
		c0.4-1.2,0.6-2.5,0.7-3.9c0.1-1.4,0.2-3.4,0.2-5.9c0-1.8,0-3.3-0.1-4.6c-0.1-1.3-0.3-2.4-0.6-3.3c-0.5-1.7-1.4-3-2.6-3.7
		s-3-1.1-5.4-1.1c-2.6,0-4.4,0.3-5.5,0.9c-1.1,0.6-1.9,1.8-2.2,3.6c-0.4,1.8-0.6,4.7-0.6,8.9c0,4.1,0.2,7.1,0.6,8.9
		c0.4,1.8,1.2,3,2.3,3.6c1.1,0.6,3,0.9,5.7,0.9C462.3,118.6,464,118.2,465.2,117.5z"/>
	<path class="st2" d="M484.1,121.5c-1.8-0.1-3.4-0.3-4.7-0.5v-3c3.6,0.5,6.9,0.7,10.1,0.7c1.9,0,3.4-0.2,4.4-0.6c1-0.4,1.6-1,2-1.9
		c0.3-0.8,0.5-2,0.5-3.5c0-1.7-0.1-3-0.3-3.7c-0.2-0.7-0.6-1.2-1.1-1.5c-0.5-0.3-1.4-0.4-2.6-0.6l-7.7-0.9c-2.4-0.3-4-1-4.9-2.2
		s-1.3-3.2-1.3-6c0-2.6,0.4-4.6,1.3-5.9c0.9-1.3,2.1-2.2,3.6-2.7c1.6-0.4,3.6-0.7,6.2-0.7c1.3,0,2.8,0.1,4.5,0.3
		c1.6,0.2,3,0.4,4.2,0.6v3c-2.8-0.5-5.8-0.8-9.1-0.8c-1.7,0-3,0.1-4,0.4c-1,0.3-1.8,0.8-2.3,1.7c-0.6,0.9-0.9,2.1-0.9,3.8
		c0,1.5,0.1,2.6,0.3,3.3c0.2,0.7,0.6,1.2,1.1,1.4c0.5,0.3,1.4,0.5,2.5,0.6l7.6,0.9c1.7,0.2,3,0.5,3.8,1c0.9,0.5,1.5,1.3,1.9,2.5
		c0.4,1.2,0.6,3,0.6,5.3c0,2.4-0.4,4.3-1.1,5.6c-0.7,1.3-1.9,2.2-3.4,2.8c-1.5,0.5-3.5,0.8-6.1,0.8
		C487.6,121.8,485.9,121.7,484.1,121.5z"/>
</g>
<g>
</g>
<g>
	<path class="st2" d="M535.4,121.2l-2.9-8.8h-12.2l-2.8,8.8h-3.8L524,88.9h4.9l10.3,32.3H535.4z M526.6,93h-0.2l-5.1,16h10.3
		L526.6,93z"/>
	<path class="st2" d="M553.4,107.1v-3.2h9.8v16.8c-1.3,0.3-2.8,0.5-4.5,0.6c-1.7,0.2-3.2,0.3-4.5,0.3c-3.4,0-6-0.4-7.6-1.2
		c-1.6-0.8-2.7-2.4-3.4-4.7c-0.6-2.3-0.9-5.8-0.9-10.7c0-4.8,0.3-8.3,0.9-10.6c0.6-2.3,1.8-3.9,3.4-4.7c1.6-0.8,4.2-1.3,7.6-1.3
		c1.5,0,3,0.1,4.7,0.3c1.7,0.2,3,0.4,4.1,0.7v3.1c-1.1-0.2-2.4-0.4-3.8-0.5c-1.4-0.1-2.5-0.2-3.4-0.2c-3.2,0-5.4,0.2-6.6,0.7
		c-1.2,0.4-2.1,1.5-2.6,3.3c-0.5,1.8-0.7,4.8-0.7,9.2c0,4.1,0.2,7,0.5,8.8c0.4,1.8,1.1,3,2.2,3.6s2.9,0.9,5.5,0.9
		c0.8,0,1.7,0,2.7-0.1s1.9-0.2,2.6-0.3v-10.8H553.4z"/>
</g>
<g>
</g>
<g>
</g>
<g>
</g>
<g>
</g>
<g>
</g>
<g>
</g>
</svg>
